<?xml version="1.0" encoding="utf-8"?>
<svg viewBox="0 0 16 16" xmlns="http://www.w3.org/2000/svg">
  <path style="fill: rgb(255, 161, 109);" d="M 11.193 12.115 C 11.391 12.148 11.592 12.1 11.753 11.98 C 11.913 11.866 12.026 11.686 12.054 11.488 L 12.231 10.308 C 12.267 10.07 12.415 9.868 12.631 9.761 L 13.699 9.228 C 13.88 9.136 14.016 8.978 14.076 8.789 C 14.139 8.596 14.119 8.39 14.028 8.213 L 13.479 7.148 C 13.369 6.94 13.369 6.686 13.479 6.476 L 14.028 5.414 C 14.119 5.235 14.137 5.03 14.076 4.837 C 14.014 4.646 13.878 4.491 13.699 4.4 L 12.631 3.866 C 12.415 3.757 12.267 3.555 12.231 3.319 L 12.054 2.137 C 12.026 1.939 11.913 1.761 11.753 1.647 C 11.592 1.527 11.391 1.479 11.193 1.511 L 10.011 1.708 C 9.776 1.747 9.539 1.67 9.371 1.5 L 8.532 0.646 C 8.39 0.505 8.199 0.427 7.999 0.427 C 7.8 0.427 7.605 0.507 7.464 0.646 L 6.625 1.5 C 6.458 1.67 6.22 1.747 5.986 1.708 L 4.806 1.514 C 4.608 1.482 4.407 1.53 4.244 1.649 C 4.083 1.765 3.973 1.943 3.943 2.141 L 3.767 3.321 C 3.731 3.558 3.582 3.76 3.37 3.868 L 2.299 4.401 C 2.122 4.494 1.985 4.648 1.923 4.84 C 1.86 5.033 1.879 5.239 1.97 5.417 L 2.52 6.481 C 2.628 6.689 2.628 6.942 2.52 7.151 L 1.97 8.215 C 1.879 8.393 1.86 8.599 1.923 8.792 C 1.985 8.983 2.12 9.138 2.299 9.229 L 3.37 9.764 C 3.582 9.872 3.731 10.074 3.767 10.312 L 3.943 11.492 C 3.973 11.688 4.083 11.867 4.244 11.984 C 4.405 12.102 4.608 12.15 4.806 12.12 L 5.986 11.924 C 6.22 11.883 6.458 11.962 6.625 12.132 L 7.464 12.982 C 7.607 13.127 7.798 13.207 7.999 13.207 C 8.199 13.207 8.39 13.127 8.532 12.982 L 9.371 12.132 C 9.539 11.962 9.778 11.883 10.011 11.924 L 11.193 12.115 Z M 7.998 11.255 C 5.486 11.255 3.444 9.213 3.444 6.704 C 3.444 4.194 5.488 2.15 7.998 2.15 C 10.508 2.15 12.55 4.195 12.55 6.704 C 12.55 9.211 10.51 11.255 7.998 11.255 Z" transform="matrix(1, 0, 0, 1, 0, -1.7763568394002505e-15)"/>
  <path style="fill: rgb(255, 243, 109);" d="M 7.999 2.807 C 5.853 2.807 4.108 4.551 4.108 6.697 C 4.108 8.842 5.855 10.586 7.999 10.586 C 10.144 10.586 11.888 8.842 11.888 6.697 C 11.888 4.551 10.144 2.807 7.999 2.807 Z" transform="matrix(1, 0, 0, 1, 0, -1.7763568394002505e-15)"/>
  <path style="fill: rgb(255, 243, 109);" d="M 14.778 12.968 L 12.661 10.85 L 12.553 11.565 C 12.503 11.894 12.32 12.197 12.051 12.391 C 11.782 12.587 11.447 12.669 11.113 12.615 L 9.93 12.421 C 9.833 12.415 9.775 12.443 9.732 12.486 L 9.529 12.69 L 12.294 15.453 C 12.402 15.561 12.555 15.598 12.698 15.555 C 12.842 15.51 12.947 15.39 12.975 15.244 L 13.225 13.902 L 14.57 13.65 C 14.717 13.623 14.837 13.517 14.88 13.372 C 14.922 13.229 14.884 13.071 14.778 12.968 Z" transform="matrix(1, 0, 0, 1, 0, -1.7763568394002505e-15)"/>
  <path style="fill: rgb(255, 243, 109);" d="M 6.104 12.416 L 4.886 12.615 C 4.543 12.667 4.214 12.584 3.943 12.388 C 3.677 12.195 3.493 11.892 3.443 11.561 L 3.335 10.85 L 1.22 12.968 C 1.115 13.073 1.077 13.229 1.12 13.372 C 1.165 13.515 1.285 13.619 1.43 13.65 L 2.773 13.9 L 3.026 15.244 C 3.052 15.39 3.16 15.51 3.303 15.555 C 3.444 15.598 3.601 15.561 3.704 15.455 L 6.469 12.69 L 6.267 12.486 C 6.224 12.44 6.164 12.416 6.104 12.416 Z" transform="matrix(1, 0, 0, 1, 0, -1.7763568394002505e-15)"/>
</svg>