<?xml version="1.0" encoding="utf-8"?>
<svg viewBox="0 0 16 16" fill="none" xmlns="http://www.w3.org/2000/svg">
  <path d="M 7.993 15.427 L 2.632 13.943 L 1.438 0.573 L 14.562 0.573 L 13.367 13.94 L 7.993 15.427 Z" fill="#264DE4" style="" transform="matrix(1, 0, 0, 1, 0, -8.881784197001252e-16)"/>
  <path d="M 12.343 13.089 L 13.365 1.666 L 8.001 1.666 L 8.001 14.29 L 12.343 13.089 Z" fill="#2965F1" style="" transform="matrix(1, 0, 0, 1, 0, -8.881784197001252e-16)"/>
  <path d="M 4.176 6.624 L 4.324 8.264 L 8.001 8.264 L 8.001 6.624 L 4.176 6.624 Z" fill="#EBEBEB" style="" transform="matrix(1, 0, 0, 1, 0, -8.881784197001252e-16)"/>
  <path d="M 3.88 3.306 L 4.03 4.945 L 8.001 4.945 L 8.001 3.306 L 7.995 3.306 L 3.88 3.306 Z" fill="#EBEBEB" style="" transform="matrix(1, 0, 0, 1, 0, -8.881784197001252e-16)"/>
  <path d="M 8.001 10.883 L 7.994 10.885 L 6.164 10.391 L 6.047 9.084 L 5.158 9.084 L 4.397 9.084 L 4.627 11.658 L 7.993 12.591 L 8.001 12.589 L 8.001 10.883 Z" fill="#EBEBEB" style="" transform="matrix(1, 0, 0, 1, 0, -8.881784197001252e-16)"/>
  <path d="M 11.814 6.624 L 12.11 3.306 L 7.995 3.306 L 7.995 4.945 L 10.31 4.945 L 10.16 6.624 L 7.995 6.624 L 7.995 8.264 L 10.018 8.264 L 9.828 10.39 L 7.995 10.885 L 7.995 12.59 L 11.363 11.658 L 11.387 11.382 L 11.774 7.065 L 11.814 6.624 Z" fill="white" style="" transform="matrix(1, 0, 0, 1, 0, -8.881784197001252e-16)"/>
</svg>