<?xml version="1.0" encoding="utf-8"?>
<svg viewBox="0 0 16 16" xmlns="http://www.w3.org/2000/svg">
  <path d="M 4.845 2.218 C 4.845 2.218 4.845 4.322 4.845 4.322 C 4.845 4.322 6.949 4.322 6.949 4.322 C 6.949 4.322 6.949 2.218 6.949 2.218 C 6.949 2.218 4.845 2.218 4.845 2.218 Z M 8.001 4.322 C 8.001 4.322 10.103 4.322 10.103 4.322 C 10.103 4.322 10.103 2.218 10.103 2.218 C 10.103 2.218 8.001 2.218 8.001 2.218 C 8.001 2.218 8.001 4.322 8.001 4.322 Z M 4.845 7.473 C 4.845 7.473 6.949 7.473 6.949 7.473 C 6.949 7.473 6.949 5.37 6.949 5.37 C 6.949 5.37 4.845 5.37 4.845 5.37 C 4.845 5.37 4.845 7.473 4.845 7.473 Z M 8.001 7.473 C 8.001 7.473 10.103 7.473 10.103 7.473 C 10.103 7.473 10.103 5.37 10.103 5.37 C 10.103 5.37 8.001 5.37 8.001 5.37 C 8.001 5.37 8.001 7.473 8.001 7.473 Z M 1.694 7.473 C 1.694 7.473 3.795 7.473 3.795 7.473 C 3.795 7.473 3.795 5.37 3.795 5.37 C 3.795 5.37 1.694 5.37 1.694 5.37 C 1.694 5.37 1.694 7.473 1.694 7.473 Z M 15.357 8.524 C 14.932 8.096 14.406 7.868 13.781 7.868 C 13.158 7.868 12.632 8.096 12.206 8.524 C 12.632 8.096 12.863 7.572 12.863 6.948 C 12.863 6.325 12.632 5.798 12.206 5.37 C 11.778 5.798 11.549 6.325 11.549 6.948 C 11.549 7.572 11.778 8.096 12.206 8.524 C 12.632 8.951 13.158 9.181 13.781 9.181 C 14.406 9.181 14.932 8.951 15.357 8.524 Z M 0.643 11.154 C 0.643 11.875 0.906 12.499 1.43 12.992 C 1.923 13.518 2.549 13.781 3.269 13.781 C 3.269 13.781 4.845 13.781 4.845 13.781 C 6.82 13.781 8.527 13.19 10.004 12.004 C 11.483 10.855 12.206 9.675 12.206 8.524 C 12.206 8.524 0.643 8.524 0.643 8.524 C 0.643 8.524 0.643 11.154 0.643 11.154 Z M 2.154 10.036 C 2.45 9.74 2.844 9.576 3.269 9.576 C 3.696 9.576 4.092 9.74 4.388 10.036 C 4.682 10.331 4.845 10.726 4.845 11.154 C 4.845 11.58 4.682 11.974 4.388 12.268 C 4.092 12.565 3.696 12.729 3.269 12.729 C 2.844 12.729 2.45 12.565 2.154 12.268 C 1.858 11.974 1.694 11.58 1.694 11.154 C 1.694 10.726 1.858 10.331 2.154 10.036 Z M 2.747 11.678 C 2.747 11.678 3.795 11.678 3.795 11.678 C 3.795 11.678 3.795 10.627 3.795 10.627 C 3.795 10.627 2.747 10.627 2.747 10.627 C 2.747 10.627 2.747 11.678 2.747 11.678 Z" style="fill: rgb(29, 99, 237);" transform="matrix(1, 0, 0, 1, 3.552713678800501e-15, 0)"/>
</svg>