<?xml version="1.0" encoding="utf-8"?>
<svg viewBox="0 0 16 16" style="enable-background:new 0 0 439 309;" xmlns="http://www.w3.org/2000/svg">
  <defs>
    <style type="text/css">
	.st0{fill:#3574f0}
</style>
  </defs>
  <path class="st0" d="M 13.311 6.585 C 13.237 6.03 12.931 5.55 12.379 5.116 L 12.061 4.9 L 11.849 5.222 C 11.578 5.636 11.44 6.213 11.484 6.767 C 11.503 6.961 11.567 7.311 11.763 7.613 C 11.567 7.723 11.178 7.869 10.661 7.859 L 0.772 7.859 L 0.753 7.975 C 0.661 8.529 0.661 10.266 1.772 11.595 C 2.618 12.608 3.883 13.122 5.534 13.122 C 9.118 13.122 11.766 11.453 13.011 8.414 C 13.499 8.423 14.55 8.417 15.091 7.372 C 15.103 7.348 15.136 7.284 15.23 7.085 L 15.283 6.977 L 14.981 6.772 C 14.649 6.555 13.896 6.472 13.311 6.585 Z M 8.679 2.879 L 7.177 2.879 L 7.177 4.262 L 8.679 4.262 L 8.679 2.879 Z M 8.679 4.541 L 7.177 4.541 L 7.177 5.925 L 8.679 5.925 L 8.679 4.541 Z M 6.902 4.541 L 5.399 4.541 L 5.399 5.925 L 6.902 5.925 L 6.902 4.541 Z M 5.127 4.541 L 3.623 4.541 L 3.623 5.925 L 5.127 5.925 L 5.127 4.541 Z M 3.347 6.205 L 1.845 6.205 L 1.845 7.587 L 3.347 7.587 L 3.347 6.205 Z M 5.127 6.205 L 3.623 6.205 L 3.623 7.587 L 5.127 7.587 L 5.127 6.205 Z M 6.902 6.205 L 5.399 6.205 L 5.399 7.587 L 6.902 7.587 L 6.902 6.205 Z M 8.679 6.205 L 7.177 6.205 L 7.177 7.587 L 8.679 7.587 L 8.679 6.205 Z M 10.458 6.205 L 8.955 6.205 L 8.955 7.587 L 10.458 7.587 L 10.458 6.205 Z" style="" transform="matrix(0.9999999999999999, 0, 0, 0.9999999999999999, -3.552713678800501e-15, -8.881784197001252e-16)"/>
</svg>