<?xml version="1.0" encoding="utf-8"?>
<svg viewBox="0 0 16 16" xmlns="http://www.w3.org/2000/svg">
  <path d="M 5.023 6.199 L 7.884 4.547 C 7.956 4.506 8.044 4.506 8.116 4.547 L 10.977 6.199 C 11.049 6.241 11.093 6.317 11.093 6.4 L 11.093 9.704 C 11.093 9.787 11.049 9.863 10.977 9.905 L 8.116 11.557 C 8.044 11.598 7.956 11.598 7.884 11.557 L 5.023 9.905 C 4.951 9.863 4.907 9.787 4.907 9.704 L 4.907 6.4 C 4.907 6.317 4.951 6.241 5.023 6.199" fill="#8080F2"/>
  <path d="M 15.44 7.704 L 12.021 1.756 C 11.897 1.541 11.667 1.383 11.419 1.383 L 4.581 1.383 C 4.333 1.383 4.103 1.541 3.979 1.756 L 0.56 7.691 C 0.436 7.906 0.436 8.178 0.56 8.393 L 3.979 14.292 C 4.103 14.507 4.333 14.617 4.581 14.617 L 11.419 14.617 C 11.667 14.617 11.897 14.511 12.021 14.296 L 15.44 8.387 C 15.564 8.172 15.564 7.919 15.44 7.704 M 12.609 10.565 C 12.609 10.652 12.556 10.733 12.48 10.777 L 8.125 13.289 C 8.05 13.333 7.955 13.333 7.879 13.289 L 3.521 10.777 C 3.445 10.733 3.392 10.652 3.392 10.565 L 3.392 5.539 C 3.392 5.452 3.444 5.371 3.52 5.327 L 7.875 2.814 C 7.951 2.771 8.045 2.771 8.121 2.814 L 12.48 5.327 C 12.556 5.371 12.609 5.452 12.609 5.539 L 12.609 10.565 Z" fill="#4b32c3"/>
</svg>