<?xml version="1.0" encoding="utf-8"?>
<svg viewBox="0 0 16 16" xmlns="http://www.w3.org/2000/svg">
  <path d="M 8.813 0.902 C 8.566 0.654 8.318 0.548 8.001 0.548 C 7.682 0.548 7.435 0.654 7.188 0.902 C 7.188 0.902 7.047 1.042 7.047 1.042 C 7.047 1.042 6.658 1.431 6.658 1.431 C 6.658 1.431 6.306 1.785 6.306 1.785 C 6.306 1.785 6.128 1.961 6.128 1.961 C 6.128 1.961 7.259 3.091 7.259 3.091 C 7.506 2.985 7.753 2.914 8.001 2.914 C 8.459 2.914 8.883 3.091 9.201 3.409 C 9.519 3.726 9.696 4.15 9.696 4.609 C 9.696 4.857 9.625 5.104 9.519 5.352 C 10.296 6.093 10.685 6.481 10.685 6.481 C 10.897 6.376 11.144 6.305 11.39 6.305 C 11.85 6.305 12.273 6.481 12.592 6.8 C 12.909 7.117 13.086 7.541 13.086 8 C 13.086 8.459 12.909 8.883 12.592 9.2 C 12.273 9.519 11.85 9.695 11.39 9.695 C 10.932 9.695 10.508 9.519 10.19 9.2 C 9.872 8.883 9.696 8.459 9.696 8 C 9.696 7.753 9.766 7.541 9.872 7.293 C 9.872 7.293 9.837 7.223 9.731 7.117 C 9.731 7.117 9.307 6.693 9.307 6.693 C 9.13 6.517 8.989 6.411 8.918 6.305 C 8.918 6.305 8.742 6.128 8.742 6.128 C 8.671 6.164 8.566 6.199 8.566 6.199 C 8.566 6.199 8.566 6.729 8.566 6.729 C 8.566 6.729 8.566 8.035 8.566 8.035 C 8.566 8.035 8.566 9.165 8.566 9.165 C 8.566 9.165 8.566 9.801 8.566 9.801 C 8.883 9.907 9.166 10.119 9.378 10.402 C 9.59 10.719 9.696 11.038 9.696 11.391 C 9.696 11.85 9.519 12.274 9.201 12.591 C 8.883 12.909 8.459 13.086 8.001 13.086 C 7.541 13.086 7.118 12.909 6.799 12.591 C 6.482 12.274 6.306 11.85 6.306 11.391 C 6.306 11.038 6.411 10.719 6.623 10.402 C 6.835 10.119 7.118 9.907 7.435 9.801 C 7.435 9.801 7.435 6.199 7.435 6.199 C 7.118 6.093 6.835 5.881 6.623 5.598 C 6.411 5.316 6.306 4.998 6.306 4.609 C 6.306 4.362 6.375 4.115 6.482 3.868 C 6.482 3.868 5.351 2.738 5.351 2.738 C 5.351 2.738 0.901 7.188 0.901 7.188 C 0.655 7.435 0.548 7.683 0.548 8 C 0.548 8.317 0.655 8.565 0.901 8.812 C 0.901 8.812 7.188 15.098 7.188 15.098 C 7.435 15.346 7.682 15.452 8.001 15.452 C 8.318 15.452 8.566 15.346 8.813 15.098 C 8.813 15.098 9.731 14.181 9.731 14.181 C 9.731 14.181 12.026 11.885 12.026 11.885 C 12.026 11.885 14.075 9.836 14.075 9.836 C 14.075 9.836 15.099 8.812 15.099 8.812 C 15.347 8.565 15.452 8.317 15.452 8 C 15.452 7.683 15.347 7.435 15.099 7.188 C 15.099 7.188 8.813 0.902 8.813 0.902 Z" style="fill: rgb(249, 78, 26);"/>
</svg>