<?xml version="1.0" encoding="utf-8"?>
<svg viewBox="0 0 16 16" xmlns="http://www.w3.org/2000/svg">
  <path d="M 4.125 7.516 C 4.125 7.516 0.252 7.516 0.252 7.516 C 0.252 7.516 0.252 8.486 0.252 8.486 C 0.252 8.486 4.125 8.486 4.125 8.486 C 4.125 8.486 4.125 7.516 4.125 7.516 Z M 4.125 5.579 C 4.125 5.579 1.219 5.579 1.219 5.579 C 1.219 5.579 1.219 6.547 1.219 6.547 C 1.219 6.547 4.125 6.547 4.125 6.547 C 4.125 6.547 4.125 5.579 4.125 5.579 Z M 4.125 9.453 C 4.125 9.453 3.157 9.453 3.157 9.453 C 3.157 9.453 3.157 10.421 3.157 10.421 C 3.157 10.421 4.125 10.421 4.125 10.421 C 4.125 10.421 4.125 9.453 4.125 9.453 Z M 7.03 3.642 C 6.516 3.642 6.063 3.824 5.669 4.219 C 5.275 4.61 5.094 5.064 5.094 5.579 C 5.094 5.579 5.094 10.421 5.094 10.421 C 5.094 10.936 5.275 11.391 5.669 11.784 C 6.063 12.178 6.516 12.358 7.03 12.358 C 7.03 12.358 7.999 12.358 7.999 12.358 C 8.514 12.358 8.968 12.178 9.362 11.784 C 9.755 11.391 9.937 10.936 9.937 10.421 C 9.937 10.421 9.937 7.516 9.937 7.516 C 9.937 7.516 7.999 7.516 7.999 7.516 C 7.999 7.516 7.999 9.453 7.999 9.453 C 7.999 9.453 8.968 9.453 8.968 9.453 C 8.968 9.453 8.968 10.421 8.968 10.421 C 8.968 10.421 7.03 10.421 7.03 10.421 C 7.03 10.421 7.03 5.579 7.03 5.579 C 7.03 5.579 8.968 5.579 8.968 5.579 C 8.968 5.579 8.968 6.547 8.968 6.547 C 8.968 6.547 9.937 6.547 9.937 6.547 C 9.937 6.547 9.937 5.579 9.937 5.579 C 9.937 5.064 9.755 4.61 9.362 4.219 C 8.968 3.824 8.514 3.642 7.999 3.642 C 7.999 3.642 7.03 3.642 7.03 3.642 Z M 12.841 3.642 C 12.329 3.642 11.874 3.824 11.48 4.219 C 11.086 4.61 10.905 5.064 10.905 5.579 C 10.905 5.579 10.905 10.421 10.905 10.421 C 10.905 10.936 11.086 11.391 11.48 11.784 C 11.874 12.178 12.329 12.358 12.841 12.358 C 12.841 12.358 13.811 12.358 13.811 12.358 C 14.326 12.358 14.781 12.178 15.172 11.784 C 15.566 11.391 15.748 10.936 15.748 10.421 C 15.748 10.421 15.748 5.579 15.748 5.579 C 15.748 5.064 15.566 4.61 15.172 4.219 C 14.781 3.824 14.326 3.642 13.811 3.642 C 13.811 3.642 12.841 3.642 12.841 3.642 Z M 12.841 5.579 C 12.841 5.579 13.811 5.579 13.811 5.579 C 13.811 5.579 13.811 10.421 13.811 10.421 C 13.811 10.421 12.841 10.421 12.841 10.421 C 12.841 10.421 12.841 5.579 12.841 5.579 Z" style="fill: rgb(90, 212, 230);"/>
</svg>