<?xml version="1.0" encoding="utf-8"?>
<svg viewBox="0 0 16 16" xmlns="http://www.w3.org/2000/svg">
  <path d="M 14.554 0.568 L 13.36 13.945 L 7.992 15.433 L 2.639 13.948 L 1.446 0.568 L 14.554 0.568 Z" fill="#E44D26" style=""/>
  <path d="M 8 14.296 L 12.338 13.094 L 13.359 1.662 L 8 1.662 L 8 14.296 Z" fill="#F16529" style=""/>
  <path d="M 5.678 4.944 L 8 4.944 L 8 3.302 L 3.885 3.302 L 3.925 3.742 L 4.328 8.266 L 8 8.266 L 8 6.624 L 5.829 6.624 L 5.678 4.944 Z M 6.049 9.085 L 4.401 9.085 L 4.632 11.662 L 7.992 12.597 L 8 12.594 L 8 10.887 L 7.993 10.888 L 6.165 10.394 L 6.049 9.085 Z" fill="#EBEBEB" style=""/>
  <path d="M 7.995 8.266 L 10.015 8.266 L 9.825 10.393 L 7.995 10.888 L 7.995 12.595 L 11.359 11.662 L 11.383 11.386 L 11.769 7.064 L 11.81 6.624 L 7.995 6.624 L 7.995 8.266 Z M 7.995 4.94 L 7.995 4.944 L 11.958 4.944 L 11.992 4.575 L 12.066 3.742 L 12.104 3.302 L 7.995 3.302 L 7.995 4.94 Z" fill="#FFF" style=""/>
</svg>