<?xml version="1.0" encoding="utf-8"?>
<svg viewBox="0 0 16 16" xmlns="http://www.w3.org/2000/svg">
  <path d="M 10.454 9.839 C 10.454 9.839 5.548 9.839 5.548 9.839 C 5.548 9.839 5.548 1.255 5.548 1.255 C 5.548 1.255 0.642 1.255 0.642 1.255 C 0.642 1.255 0.642 11.067 0.642 11.067 C 0.642 11.067 4.322 11.067 4.322 11.067 C 4.322 11.067 4.322 14.745 4.322 14.745 C 4.322 14.745 11.679 14.745 11.679 14.745 C 11.679 14.745 11.679 11.067 11.679 11.067 C 11.679 11.067 15.359 11.067 15.359 11.067 C 15.359 11.067 15.359 6.161 15.359 6.161 C 15.359 6.161 14.132 6.161 14.132 6.161 C 14.132 6.161 10.454 6.161 10.454 6.161 C 10.454 6.161 10.454 9.839 10.454 9.839 Z M 4.322 2.482 C 4.322 2.482 4.322 9.839 4.322 9.839 C 4.322 9.839 1.869 9.839 1.869 9.839 C 1.869 9.839 1.869 2.482 1.869 2.482 C 1.869 2.482 4.322 2.482 4.322 2.482 Z M 5.548 11.067 C 5.548 11.067 10.454 11.067 10.454 11.067 C 10.454 11.067 10.454 13.519 10.454 13.519 C 10.454 13.519 5.548 13.519 5.548 13.519 C 5.548 13.519 5.548 11.067 5.548 11.067 Z M 11.679 7.387 C 11.679 7.387 14.132 7.387 14.132 7.387 C 14.132 7.387 14.132 9.839 14.132 9.839 C 14.132 9.839 11.679 9.839 11.679 9.839 C 11.679 9.839 11.679 7.387 11.679 7.387 Z" style="fill: rgb(249, 38, 114);"/>
</svg>