<?xml version="1.0" encoding="utf-8"?>
<svg viewBox="0 0 16 16" xmlns="http://www.w3.org/2000/svg">
  <path d="M 10.662 9.997 C 10.662 9.997 5.338 9.997 5.338 9.997 C 5.338 9.997 5.338 0.681 5.338 0.681 C 5.338 0.681 0.015 0.681 0.015 0.681 C 0.015 0.681 0.015 11.328 0.015 11.328 C 0.015 11.328 4.008 11.328 4.008 11.328 C 4.008 11.328 4.008 15.32 4.008 15.32 C 4.008 15.32 11.992 15.32 11.992 15.32 C 11.992 15.32 11.992 11.328 11.992 11.328 C 11.992 11.328 15.985 11.328 15.985 11.328 C 15.985 11.328 15.985 6.005 15.985 6.005 C 15.985 6.005 14.654 6.005 14.654 6.005 C 14.654 6.005 10.662 6.005 10.662 6.005 C 10.662 6.005 10.662 9.997 10.662 9.997 Z M 4.008 2.012 C 4.008 2.012 4.008 9.997 4.008 9.997 C 4.008 9.997 1.346 9.997 1.346 9.997 C 1.346 9.997 1.346 2.012 1.346 2.012 C 1.346 2.012 4.008 2.012 4.008 2.012 Z M 5.338 11.328 C 5.338 11.328 10.662 11.328 10.662 11.328 C 10.662 11.328 10.662 13.99 10.662 13.99 C 10.662 13.99 5.338 13.99 5.338 13.99 C 5.338 13.99 5.338 11.328 5.338 11.328 Z M 11.992 7.336 C 11.992 7.336 14.654 7.336 14.654 7.336 C 14.654 7.336 14.654 9.997 14.654 9.997 C 14.654 9.997 11.992 9.997 11.992 9.997 C 11.992 9.997 11.992 7.336 11.992 7.336 Z" style="fill: rgb(252, 97, 141);"/>
</svg>