<?xml version="1.0" encoding="utf-8"?>
<svg viewBox="0 0 16 16" xmlns="http://www.w3.org/2000/svg">
  <path d="M 10.358 9.768 C 10.358 9.768 5.643 9.768 5.643 9.768 C 5.643 9.768 5.643 1.517 5.643 1.517 C 5.643 1.517 0.928 1.517 0.928 1.517 C 0.928 1.517 0.928 10.947 0.928 10.947 C 0.928 10.947 4.465 10.947 4.465 10.947 C 4.465 10.947 4.465 14.482 4.465 14.482 C 4.465 14.482 11.535 14.482 11.535 14.482 C 11.535 14.482 11.535 10.947 11.535 10.947 C 11.535 10.947 15.072 10.947 15.072 10.947 C 15.072 10.947 15.072 6.233 15.072 6.233 C 15.072 6.233 13.893 6.233 13.893 6.233 C 13.893 6.233 10.358 6.233 10.358 6.233 C 10.358 6.233 10.358 9.768 10.358 9.768 Z M 4.465 2.697 C 4.465 2.697 4.465 9.768 4.465 9.768 C 4.465 9.768 2.107 9.768 2.107 9.768 C 2.107 9.768 2.107 2.697 2.107 2.697 C 2.107 2.697 4.465 2.697 4.465 2.697 Z M 5.643 10.947 C 5.643 10.947 10.358 10.947 10.358 10.947 C 10.358 10.947 10.358 13.304 10.358 13.304 C 10.358 13.304 5.643 13.304 5.643 13.304 C 5.643 13.304 5.643 10.947 5.643 10.947 Z M 11.535 7.411 C 11.535 7.411 13.893 7.411 13.893 7.411 C 13.893 7.411 13.893 9.768 13.893 9.768 C 13.893 9.768 11.535 9.768 11.535 9.768 C 11.535 9.768 11.535 7.411 11.535 7.411 Z" style="fill: rgb(252, 97, 141);"/>
</svg>