<?xml version="1.0" encoding="utf-8"?>
<svg viewBox="0 0 16 16" xmlns="http://www.w3.org/2000/svg">
  <path d="M 8.001 0.412 C 7.799 0.412 7.588 0.464 7.417 0.562 L 1.854 3.776 C 1.496 3.985 1.272 4.375 1.272 4.794 L 1.272 11.208 C 1.272 11.627 1.496 12.015 1.854 12.224 L 3.313 13.061 C 4.024 13.405 4.262 13.412 4.591 13.412 C 5.638 13.412 6.244 12.777 6.244 11.671 L 6.244 5.339 C 6.244 5.249 6.168 5.174 6.078 5.174 L 5.383 5.174 C 5.287 5.174 5.211 5.249 5.211 5.339 L 5.211 11.671 C 5.211 12.164 4.703 12.65 3.889 12.238 L 2.356 11.364 C 2.304 11.327 2.274 11.27 2.273 11.208 L 2.273 4.794 C 2.273 4.726 2.303 4.665 2.356 4.635 L 7.918 1.429 C 7.962 1.4 8.037 1.4 8.083 1.429 L 13.643 4.635 C 13.696 4.665 13.726 4.726 13.726 4.794 L 13.726 11.208 C 13.726 11.267 13.696 11.326 13.643 11.364 L 8.083 14.57 C 8.037 14.601 7.962 14.601 7.911 14.57 L 6.505 13.719 C 6.445 13.697 6.387 13.689 6.348 13.712 C 5.952 13.935 5.876 13.981 5.511 14.093 C 5.421 14.122 5.28 14.174 5.563 14.332 L 7.417 15.431 C 7.596 15.535 7.79 15.588 8.001 15.588 C 8.209 15.588 8.403 15.535 8.583 15.431 L 14.145 12.224 C 14.505 12.015 14.728 11.627 14.728 11.208 L 14.728 4.794 C 14.728 4.375 14.505 3.985 14.145 3.776 L 8.583 0.562 C 8.411 0.464 8.209 0.412 8.001 0.412 M 9.495 5.009 C 7.911 5.009 6.961 5.674 6.961 6.796 C 6.961 7.999 7.903 8.35 9.429 8.501 C 11.245 8.681 11.386 8.949 11.386 9.308 C 11.386 9.929 10.886 10.191 9.72 10.191 C 8.239 10.191 7.925 9.825 7.813 9.091 C 7.798 9.013 7.729 8.957 7.648 8.957 L 6.931 8.957 C 6.841 8.957 6.773 9.025 6.773 9.121 C 6.773 10.048 7.283 11.17 9.72 11.17 C 11.476 11.17 12.487 10.475 12.487 9.263 C 12.487 8.06 11.678 7.745 9.966 7.513 C 8.239 7.289 8.066 7.17 8.066 6.767 C 8.066 6.43 8.217 5.981 9.495 5.981 C 10.617 5.981 11.058 6.228 11.23 6.998 C 11.245 7.073 11.313 7.126 11.386 7.126 L 12.112 7.126 C 12.15 7.126 12.194 7.11 12.224 7.073 C 12.254 7.043 12.276 6.998 12.261 6.953 C 12.156 5.623 11.275 5.009 9.495 5.009 Z" style="fill: rgb(131, 205, 41);" transform="matrix(1, 0, 0, 1, -4.440892098500626e-16, 0)"/>
</svg>