<?xml version="1.0" encoding="utf-8"?>
<svg viewBox="0 0 16 16" xmlns="http://www.w3.org/2000/svg">
  <path d="M 15.269 7.441 C 15.269 7.127 15.164 6.882 14.954 6.637 C 14.709 6.427 14.465 6.324 14.151 6.324 C 14.151 5.729 13.941 5.205 13.486 4.75 C 13.033 4.296 12.509 4.086 11.915 4.086 C 11.915 4.086 10.796 4.086 10.796 4.086 C 10.796 4.086 10.796 6.324 10.796 6.324 C 10.796 7.266 10.481 8.035 9.818 8.7 C 9.154 9.362 8.384 9.678 7.442 9.678 C 7.442 9.678 7.442 8.56 7.442 8.56 C 8.035 8.56 8.56 8.35 9.013 7.896 C 9.468 7.441 9.677 6.917 9.677 6.324 C 9.677 6.324 9.677 4.086 9.677 4.086 C 9.677 3.491 9.468 2.968 9.013 2.514 C 8.56 2.059 8.035 1.85 7.442 1.85 C 7.442 1.85 5.205 1.85 5.205 1.85 C 5.205 1.85 5.205 2.968 5.205 2.968 C 5.205 2.968 2.968 2.968 2.968 2.968 C 2.373 2.968 1.849 3.178 1.395 3.632 C 0.94 4.086 0.731 4.611 0.731 5.205 C 0.731 5.205 0.731 11.915 0.731 11.915 C 0.731 12.229 0.836 12.474 1.081 12.684 C 1.29 12.928 1.534 13.033 1.849 13.033 C 1.849 13.033 2.968 13.033 2.968 13.033 C 2.968 13.033 2.968 10.796 2.968 10.796 C 3.562 10.796 4.086 10.587 4.54 10.132 C 4.995 9.678 5.205 9.153 5.205 8.56 C 5.205 8.56 6.322 8.56 6.322 8.56 C 6.322 9.573 5.939 10.376 5.205 11.04 C 5.205 11.04 5.205 14.151 5.205 14.151 C 5.205 14.151 8.56 14.151 8.56 14.151 C 8.56 14.151 8.56 11.915 8.56 11.915 C 8.56 11.915 10.796 11.915 10.796 11.915 C 10.796 11.915 10.796 14.151 10.796 14.151 C 10.796 14.151 14.151 14.151 14.151 14.151 C 14.151 14.151 14.151 9.678 14.151 9.678 C 14.151 9.678 15.269 9.678 15.269 9.678 C 15.269 9.678 15.269 7.441 15.269 7.441 Z M 2.968 6.324 C 2.968 6.324 4.086 6.324 4.086 6.324 C 4.086 6.324 4.086 7.441 4.086 7.441 C 4.086 7.441 2.968 7.441 2.968 7.441 C 2.968 7.441 2.968 6.324 2.968 6.324 Z" style="fill: rgb(90, 212, 230);" transform="matrix(1, 0, 0, 1, 0, 4.440892098500626e-16)"/>
</svg>