<?xml version="1.0" encoding="utf-8"?>
<svg viewBox="0 0 16 16" xmlns="http://www.w3.org/2000/svg">
  <path d="M 15.977 7.387 C 15.977 7.042 15.862 6.773 15.632 6.505 C 15.364 6.275 15.095 6.16 14.75 6.16 C 14.75 5.508 14.52 4.933 14.021 4.434 C 13.523 3.935 12.948 3.705 12.296 3.705 C 12.296 3.705 11.068 3.705 11.068 3.705 C 11.068 3.705 11.068 6.16 11.068 6.16 C 11.068 7.195 10.723 8.039 9.994 8.768 C 9.266 9.496 8.422 9.841 7.387 9.841 C 7.387 9.841 7.387 8.614 7.387 8.614 C 8.039 8.614 8.614 8.384 9.112 7.886 C 9.611 7.387 9.841 6.812 9.841 6.16 C 9.841 6.16 9.841 3.705 9.841 3.705 C 9.841 3.053 9.611 2.478 9.112 1.98 C 8.614 1.481 8.039 1.251 7.387 1.251 C 7.387 1.251 4.932 1.251 4.932 1.251 C 4.932 1.251 4.932 2.478 4.932 2.478 C 4.932 2.478 2.478 2.478 2.478 2.478 C 1.826 2.478 1.25 2.708 0.752 3.207 C 0.253 3.705 0.023 4.281 0.023 4.933 C 0.023 4.933 0.023 12.296 0.023 12.296 C 0.023 12.641 0.138 12.91 0.407 13.14 C 0.637 13.408 0.905 13.523 1.25 13.523 C 1.25 13.523 2.478 13.523 2.478 13.523 C 2.478 13.523 2.478 11.069 2.478 11.069 C 3.13 11.069 3.705 10.839 4.203 10.34 C 4.702 9.841 4.932 9.266 4.932 8.614 C 4.932 8.614 6.159 8.614 6.159 8.614 C 6.159 9.726 5.738 10.608 4.932 11.337 C 4.932 11.337 4.932 14.75 4.932 14.75 C 4.932 14.75 8.614 14.75 8.614 14.75 C 8.614 14.75 8.614 12.296 8.614 12.296 C 8.614 12.296 11.068 12.296 11.068 12.296 C 11.068 12.296 11.068 14.75 11.068 14.75 C 11.068 14.75 14.75 14.75 14.75 14.75 C 14.75 14.75 14.75 9.841 14.75 9.841 C 14.75 9.841 15.977 9.841 15.977 9.841 C 15.977 9.841 15.977 7.387 15.977 7.387 Z M 2.478 6.16 C 2.478 6.16 3.705 6.16 3.705 6.16 C 3.705 6.16 3.705 7.387 3.705 7.387 C 3.705 7.387 2.478 7.387 2.478 7.387 C 2.478 7.387 2.478 6.16 2.478 6.16 Z" style="fill: rgb(84, 138, 247);" transform="matrix(1, 0, 0, 1, 0, 4.440892098500626e-16)"/>
</svg>