<?xml version="1.0" encoding="utf-8"?>
<svg viewBox="0 0 16 16" fill="currentColor" xmlns="http://www.w3.org/2000/svg">
  <path d="M 13.794 11.714 L 8.917 1.357 C 8.794 1.098 8.538 0.927 8.25 0.912 C 7.962 0.893 7.688 1.035 7.539 1.282 L 2.249 9.848 C 2.085 10.111 2.088 10.448 2.258 10.708 L 4.844 14.712 C 5.044 15.021 5.424 15.161 5.777 15.056 L 13.282 12.836 C 13.511 12.769 13.7 12.606 13.8 12.39 C 13.897 12.175 13.895 11.928 13.795 11.714 L 13.794 11.714 Z M 12.703 12.158 L 6.334 14.042 C 6.14 14.098 5.953 13.93 5.993 13.734 L 8.268 2.84 C 8.311 2.636 8.592 2.604 8.682 2.792 L 12.894 11.736 C 12.973 11.906 12.882 12.106 12.703 12.158 Z" clip-rule="evenodd" fill-rule="evenodd" style="fill: rgb(47, 242, 173);" transform="matrix(0.9999999999999999, 0, 0, 0.9999999999999999, -1.7763568394002505e-15, 0)"/>
</svg>