<?xml version="1.0" encoding="utf-8"?>
<svg viewBox="0 0 16 16" xmlns="http://www.w3.org/2000/svg">
  <g transform="matrix(1, 0, 0, 1, -28.387094497680664, 28.90322494506836)">
    <path d="M 37.148 -21.657 C 36.916 -21.855 36.685 -21.954 36.389 -21.954 C 36.092 -21.954 35.86 -21.855 35.663 -21.657 C 35.432 -21.426 35.333 -21.196 35.333 -20.898 C 35.333 -20.603 35.432 -20.37 35.663 -20.173 C 35.86 -19.942 36.092 -19.843 36.389 -19.843 C 36.685 -19.843 36.916 -19.942 37.148 -20.173 C 37.345 -20.37 37.445 -20.603 37.445 -20.898 C 37.445 -21.196 37.345 -21.426 37.148 -21.657 Z M 40.808 -18.326 C 42.787 -18.953 43.775 -19.812 43.775 -20.898 C 43.775 -21.988 42.787 -22.846 40.808 -23.471 C 41.269 -25.483 41.038 -26.737 40.082 -27.298 C 39.126 -27.859 37.906 -27.429 36.389 -26.012 C 34.871 -27.429 33.65 -27.859 32.693 -27.298 C 31.736 -26.737 31.506 -25.483 31.968 -23.471 C 29.99 -22.846 29 -21.988 29 -20.898 C 29 -19.812 29.99 -18.953 31.968 -18.326 C 31.506 -16.313 31.736 -15.062 32.693 -14.501 C 32.957 -14.335 33.221 -14.27 33.518 -14.27 C 33.518 -14.27 33.551 -14.27 33.551 -14.27 C 34.672 -14.434 35.629 -14.929 36.389 -15.787 C 37.148 -14.929 38.103 -14.434 39.225 -14.27 C 39.225 -14.27 39.258 -14.27 39.258 -14.27 C 39.554 -14.27 39.818 -14.335 40.082 -14.501 C 41.038 -15.062 41.269 -16.313 40.808 -18.326 Z M 39.258 -26.473 C 39.356 -26.473 39.455 -26.44 39.554 -26.374 C 40.049 -26.077 40.148 -25.219 39.818 -23.735 C 39.258 -23.835 38.73 -23.933 38.17 -23.966 C 37.839 -24.428 37.476 -24.857 37.113 -25.253 C 37.675 -25.88 38.399 -26.309 39.225 -26.473 C 39.225 -26.473 39.258 -26.473 39.258 -26.473 Z M 39.126 -19.315 C 39.159 -19.381 39.225 -19.481 39.323 -19.646 C 39.356 -19.579 39.422 -19.381 39.52 -19.085 C 39.225 -19.052 39.027 -19.019 38.928 -18.986 C 38.928 -18.986 38.994 -19.085 38.994 -19.085 C 38.994 -19.085 39.06 -19.216 39.06 -19.216 C 39.06 -19.216 39.126 -19.315 39.126 -19.315 Z M 38.762 -20.898 C 38.565 -20.504 38.367 -20.14 38.203 -19.843 C 38.037 -19.547 37.807 -19.184 37.575 -18.82 C 37.148 -18.788 36.751 -18.788 36.389 -18.788 C 36.025 -18.788 35.629 -18.788 35.199 -18.82 C 34.936 -19.25 34.705 -19.579 34.541 -19.843 C 34.376 -20.14 34.211 -20.47 34.013 -20.898 C 34.211 -21.328 34.376 -21.691 34.541 -21.954 C 34.739 -22.284 34.969 -22.613 35.199 -22.977 C 35.629 -23.01 36.025 -23.01 36.389 -23.01 C 36.751 -23.01 37.148 -23.01 37.575 -22.977 C 37.839 -22.549 38.037 -22.218 38.203 -21.954 C 38.367 -21.657 38.565 -21.328 38.762 -20.898 Z M 36.784 -17.732 C 36.784 -17.732 36.619 -17.534 36.389 -17.305 C 36.191 -17.534 36.057 -17.666 35.992 -17.732 C 35.992 -17.732 36.389 -17.732 36.389 -17.732 C 36.389 -17.732 36.784 -17.732 36.784 -17.732 Z M 33.453 -19.646 C 33.453 -19.646 33.518 -19.612 33.551 -19.514 C 33.585 -19.414 33.65 -19.315 33.65 -19.315 C 33.65 -19.315 33.716 -19.216 33.749 -19.15 C 33.783 -19.052 33.849 -18.986 33.849 -18.986 C 33.749 -19.019 33.551 -19.052 33.254 -19.085 C 33.354 -19.381 33.418 -19.547 33.453 -19.646 Z M 33.65 -22.481 C 33.65 -22.481 33.585 -22.382 33.585 -22.382 C 33.585 -22.382 33.518 -22.252 33.518 -22.252 C 33.518 -22.252 33.453 -22.152 33.453 -22.152 C 33.418 -22.252 33.354 -22.416 33.254 -22.713 C 33.585 -22.779 33.783 -22.812 33.849 -22.812 C 33.749 -22.647 33.65 -22.481 33.65 -22.481 Z M 35.992 -24.066 C 36.092 -24.197 36.224 -24.362 36.389 -24.527 C 36.586 -24.296 36.717 -24.131 36.784 -24.066 C 36.784 -24.066 36.389 -24.066 36.389 -24.066 C 36.389 -24.066 35.992 -24.066 35.992 -24.066 Z M 39.323 -22.152 C 39.258 -22.284 39.191 -22.382 39.126 -22.481 C 39.126 -22.481 39.027 -22.647 38.928 -22.812 C 38.994 -22.812 39.191 -22.779 39.52 -22.713 C 39.422 -22.416 39.356 -22.218 39.323 -22.152 Z M 32.99 -23.735 C 32.629 -25.219 32.727 -26.077 33.221 -26.374 C 33.453 -26.506 33.783 -26.473 34.211 -26.275 C 34.641 -26.077 35.135 -25.747 35.663 -25.253 C 35.299 -24.857 34.936 -24.428 34.607 -23.966 C 34.046 -23.933 33.518 -23.835 32.99 -23.735 Z M 32.232 -19.348 C 31.539 -19.579 31.011 -19.812 30.648 -20.107 C 30.252 -20.37 30.055 -20.634 30.055 -20.898 C 30.055 -21.162 30.252 -21.426 30.648 -21.723 C 31.011 -21.988 31.539 -22.218 32.232 -22.449 C 32.398 -21.921 32.594 -21.393 32.827 -20.898 C 32.594 -20.404 32.398 -19.875 32.232 -19.348 Z M 35.663 -16.546 C 34.508 -15.522 33.716 -15.127 33.221 -15.423 C 32.727 -15.721 32.661 -16.577 32.99 -18.063 C 33.518 -17.964 34.046 -17.864 34.607 -17.831 C 34.936 -17.369 35.299 -16.942 35.663 -16.546 Z M 39.785 -18.063 C 40.116 -16.577 40.049 -15.721 39.554 -15.423 C 39.323 -15.292 38.994 -15.325 38.565 -15.522 C 38.135 -15.721 37.641 -16.049 37.113 -16.546 C 37.476 -16.942 37.839 -17.369 38.17 -17.831 C 38.73 -17.864 39.258 -17.964 39.785 -18.063 Z M 42.16 -20.107 C 41.764 -19.812 41.237 -19.579 40.544 -19.348 C 40.379 -19.875 40.181 -20.404 39.951 -20.898 C 40.181 -21.393 40.379 -21.921 40.544 -22.449 C 41.237 -22.218 41.764 -21.988 42.16 -21.723 C 42.523 -21.426 42.721 -21.162 42.721 -20.898 C 42.721 -20.634 42.523 -20.37 42.16 -20.107 Z" style="fill: rgb(97, 218, 251);"/>
  </g>
</svg>