<?xml version="1.0" encoding="utf-8"?>
<svg viewBox="0 0 16 16" xmlns="http://www.w3.org/2000/svg">
  <g transform="matrix(1, 0, 0, 1, -28.387094497680664, 28.90322494506836)">
    <path d="M 37.203 -21.714 C 36.954 -21.926 36.706 -22.033 36.388 -22.033 C 36.069 -22.033 35.82 -21.926 35.608 -21.714 C 35.36 -21.466 35.254 -21.218 35.254 -20.899 C 35.254 -20.582 35.36 -20.332 35.608 -20.12 C 35.82 -19.871 36.069 -19.766 36.388 -19.766 C 36.706 -19.766 36.954 -19.871 37.203 -20.12 C 37.415 -20.332 37.522 -20.582 37.522 -20.899 C 37.522 -21.218 37.415 -21.466 37.203 -21.714 Z M 41.135 -18.136 C 43.261 -18.809 44.322 -19.731 44.322 -20.899 C 44.322 -22.069 43.261 -22.99 41.135 -23.662 C 41.63 -25.823 41.382 -27.17 40.355 -27.772 C 39.328 -28.375 38.017 -27.914 36.388 -26.391 C 34.758 -27.914 33.446 -28.375 32.419 -27.772 C 31.391 -27.17 31.144 -25.823 31.64 -23.662 C 29.515 -22.99 28.452 -22.069 28.452 -20.899 C 28.452 -19.731 29.515 -18.809 31.64 -18.136 C 31.144 -15.974 31.391 -14.63 32.419 -14.027 C 32.702 -13.849 32.986 -13.779 33.305 -13.779 C 33.305 -13.779 33.34 -13.779 33.34 -13.779 C 34.544 -13.955 35.572 -14.487 36.388 -15.408 C 37.203 -14.487 38.229 -13.955 39.435 -13.779 C 39.435 -13.779 39.47 -13.779 39.47 -13.779 C 39.788 -13.779 40.071 -13.849 40.355 -14.027 C 41.382 -14.63 41.63 -15.974 41.135 -18.136 Z M 39.47 -26.886 C 39.575 -26.886 39.681 -26.851 39.788 -26.78 C 40.32 -26.461 40.426 -25.54 40.071 -23.945 C 39.47 -24.052 38.903 -24.158 38.301 -24.194 C 37.946 -24.69 37.556 -25.15 37.166 -25.576 C 37.769 -26.249 38.547 -26.71 39.435 -26.886 C 39.435 -26.886 39.47 -26.886 39.47 -26.886 Z M 39.328 -19.198 C 39.363 -19.269 39.435 -19.376 39.54 -19.554 C 39.575 -19.481 39.646 -19.269 39.752 -18.951 C 39.435 -18.915 39.222 -18.88 39.115 -18.844 C 39.115 -18.844 39.187 -18.951 39.187 -18.951 C 39.187 -18.951 39.257 -19.092 39.257 -19.092 C 39.257 -19.092 39.328 -19.198 39.328 -19.198 Z M 38.937 -20.899 C 38.726 -20.475 38.513 -20.084 38.336 -19.766 C 38.159 -19.447 37.911 -19.057 37.662 -18.666 C 37.203 -18.632 36.778 -18.632 36.388 -18.632 C 35.998 -18.632 35.572 -18.632 35.111 -18.666 C 34.828 -19.128 34.58 -19.481 34.403 -19.766 C 34.226 -20.084 34.049 -20.439 33.836 -20.899 C 34.049 -21.36 34.226 -21.75 34.403 -22.033 C 34.616 -22.387 34.864 -22.741 35.111 -23.131 C 35.572 -23.167 35.998 -23.167 36.388 -23.167 C 36.778 -23.167 37.203 -23.167 37.662 -23.131 C 37.946 -22.671 38.159 -22.316 38.336 -22.033 C 38.513 -21.714 38.726 -21.36 38.937 -20.899 Z M 36.813 -17.498 C 36.813 -17.498 36.635 -17.285 36.388 -17.039 C 36.175 -17.285 36.032 -17.427 35.962 -17.498 C 35.962 -17.498 36.388 -17.498 36.388 -17.498 C 36.388 -17.498 36.813 -17.498 36.813 -17.498 Z M 33.235 -19.554 C 33.235 -19.554 33.305 -19.517 33.34 -19.411 C 33.376 -19.305 33.446 -19.198 33.446 -19.198 C 33.446 -19.198 33.518 -19.092 33.553 -19.021 C 33.589 -18.915 33.66 -18.844 33.66 -18.844 C 33.553 -18.88 33.34 -18.915 33.021 -18.951 C 33.128 -19.269 33.198 -19.447 33.235 -19.554 Z M 33.446 -22.599 C 33.446 -22.599 33.376 -22.493 33.376 -22.493 C 33.376 -22.493 33.305 -22.352 33.305 -22.352 C 33.305 -22.352 33.235 -22.246 33.235 -22.246 C 33.198 -22.352 33.128 -22.529 33.021 -22.848 C 33.376 -22.918 33.589 -22.954 33.66 -22.954 C 33.553 -22.777 33.446 -22.599 33.446 -22.599 Z M 35.962 -24.301 C 36.069 -24.442 36.211 -24.618 36.388 -24.796 C 36.6 -24.548 36.741 -24.371 36.813 -24.301 C 36.813 -24.301 36.388 -24.301 36.388 -24.301 C 36.388 -24.301 35.962 -24.301 35.962 -24.301 Z M 39.54 -22.246 C 39.47 -22.387 39.398 -22.493 39.328 -22.599 C 39.328 -22.599 39.222 -22.777 39.115 -22.954 C 39.187 -22.954 39.398 -22.918 39.752 -22.848 C 39.646 -22.529 39.575 -22.316 39.54 -22.246 Z M 32.738 -23.945 C 32.349 -25.54 32.455 -26.461 32.986 -26.78 C 33.235 -26.922 33.589 -26.886 34.049 -26.674 C 34.51 -26.461 35.041 -26.107 35.608 -25.576 C 35.218 -25.15 34.828 -24.69 34.474 -24.194 C 33.872 -24.158 33.305 -24.052 32.738 -23.945 Z M 31.924 -19.234 C 31.179 -19.481 30.612 -19.731 30.223 -20.049 C 29.797 -20.332 29.585 -20.615 29.585 -20.899 C 29.585 -21.182 29.797 -21.466 30.223 -21.784 C 30.612 -22.069 31.179 -22.316 31.924 -22.564 C 32.101 -21.997 32.312 -21.43 32.562 -20.899 C 32.312 -20.368 32.101 -19.8 31.924 -19.234 Z M 35.608 -16.223 C 34.368 -15.124 33.518 -14.7 32.986 -15.018 C 32.455 -15.338 32.385 -16.258 32.738 -17.853 C 33.305 -17.747 33.872 -17.64 34.474 -17.605 C 34.828 -17.108 35.218 -16.649 35.608 -16.223 Z M 40.036 -17.853 C 40.391 -16.258 40.32 -15.338 39.788 -15.018 C 39.54 -14.876 39.187 -14.913 38.726 -15.124 C 38.264 -15.338 37.733 -15.691 37.166 -16.223 C 37.556 -16.649 37.946 -17.108 38.301 -17.605 C 38.903 -17.64 39.47 -17.747 40.036 -17.853 Z M 42.587 -20.049 C 42.162 -19.731 41.595 -19.481 40.851 -19.234 C 40.674 -19.8 40.461 -20.368 40.214 -20.899 C 40.461 -21.43 40.674 -21.997 40.851 -22.564 C 41.595 -22.316 42.162 -22.069 42.587 -21.784 C 42.977 -21.466 43.189 -21.182 43.189 -20.899 C 43.189 -20.615 42.977 -20.332 42.587 -20.049 Z" style="fill: rgb(90, 212, 230);"/>
  </g>
</svg>