<?xml version="1.0" encoding="utf-8"?>
<svg viewBox="0 0 16 16" xmlns="http://www.w3.org/2000/svg">
  <path d="M 8 1.146 C 8.757 1.146 9.371 1.76 9.371 2.516 C 9.371 3.025 9.097 3.471 8.685 3.704 L 8.685 4.573 L 9.371 4.573 C 12.021 4.573 14.169 6.723 14.169 9.373 L 14.854 9.373 C 15.232 9.373 15.54 9.679 15.541 10.058 L 15.541 12.114 C 15.541 12.491 15.233 12.799 14.854 12.799 L 14.169 12.799 L 14.169 13.485 C 14.169 14.241 13.555 14.854 12.798 14.854 L 3.201 14.854 C 2.445 14.854 1.829 14.242 1.829 13.485 L 1.829 12.8 L 1.144 12.8 C 0.767 12.8 0.459 12.492 0.459 12.114 L 0.459 10.058 C 0.459 9.679 0.767 9.372 1.144 9.372 L 1.829 9.372 C 1.829 6.721 3.979 4.573 6.629 4.573 L 7.314 4.573 L 7.314 3.704 C 6.888 3.461 6.628 3.007 6.629 2.516 C 6.629 1.76 7.242 1.146 8 1.146 M 4.915 8.687 C 3.968 8.687 3.201 9.454 3.201 10.4 C 3.201 11.346 3.968 12.114 4.915 12.114 C 5.862 12.114 6.629 11.346 6.629 10.4 C 6.629 9.454 5.862 8.687 4.915 8.687 M 11.085 8.687 C 10.138 8.687 9.371 9.454 9.371 10.4 C 9.371 11.346 10.138 12.114 11.085 12.114 C 12.031 12.114 12.798 11.346 12.798 10.4 C 12.798 9.454 12.031 8.687 11.085 8.687 Z" fill="#ff5252" style="" transform="matrix(1, 0, 0, 1, -1.7763568394002505e-15, 0)"/>
</svg>