<?xml version="1.0" encoding="utf-8"?>
<svg viewBox="0 0 16 16" fill="none" xmlns="http://www.w3.org/2000/svg">
  <path d="M 8 1.043 C 4.758 1.043 2.13 2.048 2.13 3.288 L 2.13 12.713 C 2.13 13.952 4.758 14.957 8 14.957 C 11.242 14.957 13.87 13.952 13.87 12.713 L 13.87 3.288 C 13.87 2.048 11.242 1.043 8 1.043 Z" fill="#35322a" style=""/>
  <ellipse cx="8" cy="3.288" rx="5.87" ry="2.245" stroke="#ffca28" style=""/>
  <path d="M 13.87 12.713 C 13.87 13.952 11.242 14.957 8 14.957 C 4.758 14.957 2.13 13.952 2.13 12.713" stroke="#ffca28" style=""/>
  <path d="M 13.87 9.571 C 13.87 10.81 11.242 11.815 8 11.815 C 4.758 11.815 2.13 10.81 2.13 9.571" stroke="#ffca28" style=""/>
  <path d="M 13.87 6.429 C 13.87 7.668 11.242 8.673 8 8.673 C 4.758 8.673 2.13 7.668 2.13 6.429" stroke="#ffca28" style=""/>
  <path d="M 13.87 3.063 L 13.87 12.803" stroke="#ffca28" style=""/>
  <path d="M 2.13 3.063 L 2.13 12.803" stroke="#ffca28" style=""/>
</svg>