<?xml version="1.0" encoding="utf-8"?>
<svg viewBox="0 0 16 16" fill="none" xmlns="http://www.w3.org/2000/svg">
  <path fill-rule="evenodd" clip-rule="evenodd" d="M 8 3.464 C 5.999 3.464 4.748 4.473 4.248 6.488 C 4.999 5.48 5.875 5.102 6.875 5.355 C 7.445 5.498 7.854 5.915 8.306 6.377 C 9.042 7.129 9.894 8 11.754 8 C 13.755 8 15.007 6.992 15.507 4.976 C 14.757 5.985 13.881 6.362 12.88 6.111 C 12.309 5.966 11.9 5.548 11.449 5.087 C 10.713 4.335 9.861 3.464 8 3.464 Z M 4.248 8 C 2.246 8 0.994 9.007 0.494 11.024 C 1.244 10.016 2.12 9.637 3.122 9.89 C 3.693 10.033 4.1 10.451 4.552 10.912 C 5.288 11.665 6.141 12.535 8 12.535 C 10.003 12.535 11.253 11.528 11.754 9.512 C 11.003 10.519 10.128 10.897 9.127 10.646 C 8.556 10.502 8.148 10.084 7.696 9.623 C 6.96 8.871 6.107 8 4.248 8 Z" fill="#4be1fc" style="" transform="matrix(1, 0, 0, 1, 3.552713678800501e-15, 1.7763568394002505e-15)"/>
</svg>