<?xml version="1.0" encoding="utf-8"?>
<svg viewBox="0 0 16 16" xmlns="http://www.w3.org/2000/svg">
  <path d="M 7.638 5.549 L 11.416 5.549 L 7.638 1.771 L 7.638 5.549 M 2.83 0.741 L 8.326 0.741 L 12.446 4.862 L 12.446 13.104 C 12.446 13.863 11.831 14.477 11.072 14.477 L 2.83 14.477 C 2.072 14.477 1.457 13.863 1.457 13.104 L 1.457 2.114 C 1.457 1.352 2.068 0.741 2.83 0.741 M 9.013 11.73 L 9.013 10.356 L 2.83 10.356 L 2.83 11.73 L 9.013 11.73 M 11.072 8.983 L 11.072 7.61 L 2.83 7.61 L 2.83 8.983 L 11.072 8.983 Z" fill="#757575" style=""/>
  <rect x="5.617" y="6.331" width="8.927" height="8.927" style="fill: rgb(53, 116, 240);" rx="2.328" ry="2.328"/>
  <path d="M 12.421 8.545 C 12.658 8.601 12.873 8.725 13.042 8.904 C 13.133 8.999 13.213 9.107 13.279 9.221 C 13.283 9.235 12.851 9.524 12.59 9.685 C 12.58 9.692 12.542 9.651 12.5 9.588 C 12.402 9.42 12.227 9.315 12.033 9.309 C 11.734 9.288 11.538 9.446 11.541 9.708 C 11.538 9.773 11.553 9.837 11.583 9.895 C 11.649 10.031 11.774 10.113 12.158 10.28 C 12.868 10.587 13.173 10.786 13.36 11.073 C 13.576 11.44 13.618 11.881 13.476 12.283 C 13.281 12.725 12.861 13.025 12.379 13.07 C 12.128 13.097 11.875 13.094 11.625 13.059 C 11.24 12.997 10.887 12.814 10.616 12.536 C 10.512 12.419 10.425 12.291 10.357 12.152 C 10.387 12.131 10.416 12.112 10.449 12.093 L 10.815 11.881 L 11.101 11.714 L 11.161 11.802 C 11.264 11.944 11.392 12.068 11.54 12.161 C 11.843 12.329 12.217 12.31 12.503 12.114 C 12.654 11.966 12.676 11.734 12.56 11.562 C 12.483 11.451 12.325 11.358 11.877 11.165 C 11.527 11.047 11.207 10.851 10.943 10.592 C 10.818 10.448 10.724 10.28 10.671 10.096 C 10.631 9.888 10.626 9.675 10.654 9.463 C 10.76 8.968 11.168 8.591 11.671 8.522 C 11.919 8.492 12.173 8.501 12.421 8.545 Z M 10.094 8.958 L 10.098 9.366 L 8.806 9.366 L 8.806 13.033 L 7.892 13.033 L 7.892 9.366 L 6.599 9.366 L 6.599 8.968 C 6.597 8.832 6.601 8.695 6.614 8.558 C 6.617 8.551 7.402 8.548 8.356 8.549 L 10.088 8.555 L 10.094 8.958 Z" fill="#fff" style=""/>
</svg>