<?xml version="1.0" encoding="utf-8"?>
<svg viewBox="0 0 16 16" style="fill-rule:evenodd;clip-rule:evenodd;stroke-linejoin:round;stroke-miterlimit:1.41421" xmlns="http://www.w3.org/2000/svg">
  <path d="M 0.913 11.938 L 0.913 13.511 L 5.638 13.511 L 5.638 11.938 L 0.913 11.938 M 0.913 2.487 L 0.913 4.063 L 8.788 4.063 L 8.788 2.487 L 0.913 2.487 M 8.788 15.087 L 8.788 13.511 L 15.087 13.511 L 15.087 11.938 L 8.788 11.938 L 8.788 10.362 L 7.212 10.362 L 7.212 15.087 L 8.788 15.087 M 4.063 5.638 L 4.063 7.212 L 0.913 7.212 L 0.913 8.788 L 4.063 8.788 L 4.063 10.362 L 5.638 10.362 L 5.638 5.638 L 4.063 5.638 M 15.087 8.788 L 15.087 7.212 L 7.212 7.212 L 7.212 8.788 L 15.087 8.788 M 10.362 5.638 L 11.938 5.638 L 11.938 4.063 L 15.087 4.063 L 15.087 2.487 L 11.938 2.487 L 11.938 0.913 L 10.362 0.913 L 10.362 5.638 Z" style="fill: rgb(251, 192, 45); fill-rule: nonzero; transform-origin: 8px 8px;"/>
</svg>