<?xml version="1.0" encoding="utf-8"?>
<svg viewBox="0 0 16 16" fill="none" xmlns="http://www.w3.org/2000/svg">
  <rect width="13.963" height="13.963" style="stroke: rgb(49, 120, 198); paint-order: stroke; fill: rgb(49, 120, 198); stroke-linejoin: round; transform-origin: 7.9995px 7.9995px;" x="1.018" y="1.018"/>
  <path clip-rule="evenodd" d="M 9.904 12.732 L 9.904 14.296 C 10.159 14.427 10.459 14.525 10.807 14.59 C 11.154 14.655 11.52 14.688 11.905 14.688 C 12.28 14.688 12.636 14.652 12.973 14.58 C 13.311 14.508 13.607 14.39 13.861 14.226 C 14.115 14.061 14.317 13.846 14.465 13.58 C 14.613 13.315 14.688 12.986 14.688 12.595 C 14.688 12.312 14.645 12.063 14.56 11.85 C 14.476 11.636 14.353 11.446 14.194 11.28 C 14.034 11.114 13.842 10.965 13.619 10.833 C 13.396 10.701 13.144 10.576 12.863 10.459 C 12.658 10.374 12.474 10.292 12.311 10.212 C 12.148 10.132 12.009 10.051 11.895 9.967 C 11.781 9.884 11.693 9.796 11.631 9.703 C 11.569 9.611 11.538 9.505 11.538 9.388 C 11.538 9.281 11.566 9.184 11.621 9.097 C 11.676 9.011 11.755 8.937 11.856 8.875 C 11.957 8.813 12.081 8.765 12.227 8.731 C 12.374 8.696 12.537 8.679 12.717 8.679 C 12.847 8.679 12.985 8.689 13.13 8.709 C 13.275 8.728 13.421 8.758 13.568 8.799 C 13.714 8.84 13.857 8.891 13.995 8.953 C 14.134 9.015 14.262 9.087 14.379 9.168 L 14.379 7.706 C 14.141 7.615 13.881 7.548 13.599 7.504 C 13.317 7.46 12.994 7.438 12.629 7.438 C 12.257 7.438 11.905 7.477 11.572 7.557 C 11.24 7.637 10.947 7.762 10.694 7.931 C 10.442 8.101 10.242 8.317 10.095 8.579 C 9.948 8.841 9.875 9.155 9.875 9.52 C 9.875 9.986 10.01 10.384 10.279 10.713 C 10.547 11.042 10.956 11.321 11.504 11.549 C 11.719 11.637 11.919 11.723 12.105 11.808 C 12.291 11.893 12.452 11.981 12.587 12.072 C 12.722 12.163 12.829 12.263 12.907 12.37 C 12.986 12.478 13.025 12.6 13.025 12.737 C 13.025 12.838 13 12.932 12.951 13.018 C 12.902 13.104 12.828 13.179 12.729 13.243 C 12.629 13.306 12.505 13.356 12.357 13.392 C 12.209 13.428 12.035 13.446 11.836 13.446 C 11.497 13.446 11.161 13.386 10.829 13.267 C 10.496 13.148 10.188 12.97 9.904 12.732 L 9.904 12.732 Z M 7.274 8.878 L 9.281 8.878 L 9.281 7.594 L 3.688 7.594 L 3.688 8.878 L 5.685 8.878 L 5.685 14.594 L 7.274 14.594 L 7.274 8.878 Z" fill="#fff" fill-rule="evenodd" style=""/>
</svg>